<svg xmlns="http://www.w3.org/2000/svg" width="1600" height="900" viewBox="0 0 1600 900">
  <defs><linearGradient id="b" y2="1"><stop stop-color="#121824"/><stop offset="1" stop-color="#030407"/></linearGradient><filter id="g"><feGaussianBlur stdDeviation="18"/></filter><pattern id="s" width="4" height="4" patternUnits="userSpaceOnUse"><path d="M0 3H4" stroke="#fff" stroke-opacity=".03"/></pattern></defs><rect width="1600" height="900" fill="url(#b)"/>
  <g opacity=".18" filter="url(#g)"><circle cx="280" cy="380" r="180" fill="#00ff41"/><circle cx="800" cy="380" r="180" fill="#22d3ee"/><circle cx="1320" cy="380" r="180" fill="#a855f7"/></g>
  <g fill="#080c12" stroke-width="4"><rect x="75" y="150" width="410" height="480" stroke="#00ff41"/><rect x="595" y="150" width="410" height="480" stroke="#22d3ee"/><rect x="1115" y="150" width="410" height="480" stroke="#a855f7"/></g>
  <g font-family="monospace" text-anchor="middle"><text x="280" y="220" fill="#00ff41" font-size="30">PROVEN FACT</text><text x="800" y="220" fill="#22d3ee" font-size="30">INFERENCE</text><text x="1320" y="220" fill="#a855f7" font-size="30">PROPOSAL</text><text x="280" y="560" fill="#718072" font-size="18">PHYSICAL / CONVERGENT</text><text x="800" y="560" fill="#71808a" font-size="18">BEHAVIOR / UNTRANSLATED</text><text x="1320" y="560" fill="#82738c" font-size="18">ATTRIBUTED / REVISABLE</text></g>
  <g fill="none" stroke-width="8"><path d="M175 460 260 325l100 135Z" stroke="#00ff41"/><path d="M690 445q110-190 220 0-110 100-220 0Z" stroke="#22d3ee"/><path d="m1235 460 85-150 85 150-85 75Z" stroke="#a855f7"/></g>
  <rect x="420" y="680" width="760" height="90" fill="#05080d" stroke="#d1d5db" stroke-width="3"/><text x="800" y="735" text-anchor="middle" fill="#d1d5db" font-family="monospace" font-size="25" letter-spacing="6">KEEP THE LAYERS VISIBLE</text><rect width="1600" height="900" fill="url(#s)"/>
</svg>